<svg width="1100" height="91" viewBox="0 0 1100 91" fill="none" xmlns="http://www.w3.org/2000/svg">
<g clip-path="url(#clip0_88_2)">
<path d="M954.584 76.8617L1238.37 76.8617V4.04533L954.584 4.04533V76.8617Z" fill="#CDDB99"/>
<path d="M1042.28 91H1087.48V72.1207H1042.28V91Z" fill="#CDDB99"/>
<path d="M976.284 91H1021.49V72.1207H976.284V91Z" fill="#CDDB99"/>
<path d="M636.61 76.8617L920.4 76.8617V4.04533L636.61 4.04533V76.8617Z" fill="#CDDB99"/>
<path d="M853.113 90.6804H898.319V71.8011H853.113V90.6804Z" fill="#CDDB99"/>
<path d="M785.118 90.6804H830.324V71.8011H785.118V90.6804Z" fill="#CDDB99"/>
<path d="M724.305 91H769.51V72.1207H724.305V91Z" fill="#CDDB99"/>
<path d="M658.31 91H703.516V72.1207H658.31V91Z" fill="#CDDB99"/>
<path d="M308.639 76.8617L592.429 76.8617V4.04533L308.639 4.04533V76.8617Z" fill="#CDDB99"/>
<path d="M525.142 90.6804H570.348V71.8011H525.142V90.6804Z" fill="#CDDB99"/>
<path d="M457.148 90.6804H502.354V71.8011H457.148V90.6804Z" fill="#CDDB99"/>
<path d="M396.336 91H441.541V72.1207H396.336V91Z" fill="#CDDB99"/>
<path d="M330.342 91H375.548V72.1207H330.342V91Z" fill="#CDDB99"/>
<path d="M-15.3299 76.8617L268.46 76.8617V4.04533L-15.3299 4.04533V76.8617Z" fill="#CDDB99"/>
<path d="M201.173 90.6804H246.379V71.8011H201.173V90.6804Z" fill="#CDDB99"/>
<path d="M133.178 90.6804H178.384V71.8011H133.178V90.6804Z" fill="#CDDB99"/>
<path d="M72.3635 91H117.569V72.1207H72.3635V91Z" fill="#CDDB99"/>
<path d="M6.36777 91H51.5736V72.1207H6.36777V91Z" fill="#CDDB99"/>
<path d="M-126 59.8712L1268 59.8712V-1.52588e-05L-126 -1.52588e-05V59.8712Z" fill="#CDDB99"/>
</g>
<defs>
<clipPath id="clip0_88_2">
<rect width="1394" height="91" fill="white" transform="matrix(-1 0 0 -1 1268 91)"/>
</clipPath>
</defs>
</svg>
