<svg width="1100" height="91" viewBox="0 0 1100 91" fill="none" xmlns="http://www.w3.org/2000/svg">
<g clip-path="url(#clip0_27_61)">
<path d="M274.416 14.1383H-9.37354V86.9547H274.416V14.1383Z" fill="#CDDB99"/>
<path d="M57.9134 0.319611H12.7076V19.1989H57.9134V0.319611Z" fill="#CDDB99"/>
<path d="M125.908 0.319611H80.702V19.1989H125.908V0.319611Z" fill="#CDDB99"/>
<path d="M186.721 0H141.516V18.8793H186.721V0Z" fill="#CDDB99"/>
<path d="M252.716 0H207.51V18.8793H252.716V0Z" fill="#CDDB99"/>
<path d="M592.39 14.1383H308.6V86.9547H592.39V14.1383Z" fill="#CDDB99"/>
<path d="M375.887 0.319611H330.681V19.1989H375.887V0.319611Z" fill="#CDDB99"/>
<path d="M443.882 0.319611H398.676V19.1989H443.882V0.319611Z" fill="#CDDB99"/>
<path d="M504.695 0H459.49V18.8793H504.695V0Z" fill="#CDDB99"/>
<path d="M570.69 0H525.484V18.8793H570.69V0Z" fill="#CDDB99"/>
<path d="M920.361 14.1383H636.571V86.9547H920.361V14.1383Z" fill="#CDDB99"/>
<path d="M703.858 0.319611H658.652V19.1989H703.858V0.319611Z" fill="#CDDB99"/>
<path d="M771.852 0.319611H726.646V19.1989H771.852V0.319611Z" fill="#CDDB99"/>
<path d="M832.664 0H787.459V18.8793H832.664V0Z" fill="#CDDB99"/>
<path d="M898.658 0H853.452V18.8793H898.658V0Z" fill="#CDDB99"/>
<path d="M1244.33 14.1383H960.54V86.9547H1244.33V14.1383Z" fill="#CDDB99"/>
<path d="M1027.83 0.319611H982.621V19.1989H1027.83V0.319611Z" fill="#CDDB99"/>
<path d="M1095.82 0.319611H1050.62V19.1989H1095.82V0.319611Z" fill="#CDDB99"/>
<path d="M1355 31.1288H-39V91H1355V31.1288Z" fill="#CDDB99"/>
</g>
<defs>
<clipPath id="clip0_27_61">
<rect width="1394" height="91" fill="white" transform="translate(-39)"/>
</clipPath>
</defs>
</svg>
